<svg xmlns="http://www.w3.org/2000/svg" fill-rule="evenodd" viewBox="0 0 100 100">
    <path d="M83.185 54.724c3.428-3.459 5.315-8.133 5.315-13.161C88.5 30.776 79.383 22 68.176 22c-7.834 0-14.841 4.332-18.208 10.903-3.394-6.5-10.375-10.783-18.144-10.783-11.207 0-20.324 8.776-20.324 19.563 0 5.01 1.857 9.652 5.229 13.07 7.745 7.85 32 30.612 32.245 30.841a1.497 1.497 0 0 0 2.056-.003c.242-.23 24.399-23.045 32.155-30.867zM49.997 82.438C45.274 78 25.656 59.529 18.865 52.646 16.05 49.793 14.5 45.9 14.5 41.683c0-9.133 7.771-16.563 17.324-16.563 7.818 0 14.692 5.049 16.715 12.277a1.5 1.5 0 0 0 1.444 1.096h.005a1.5 1.5 0 0 0 1.442-1.106C53.416 30.094 60.302 25 68.176 25 77.729 25 85.5 32.43 85.5 41.563c0 4.232-1.579 8.156-4.446 11.048-6.806 6.865-26.351 25.376-31.057 29.827zM11.158 57.407C7.832 53.919 6 49.158 6 44a1.5 1.5 0 1 0-3 0c0 5.932 2.126 11.429 5.987 15.478 1.704 1.788 4.211 4.339 7.452 7.583.293.293.677.439 1.061.439a1.501 1.501 0 0 0 1.061-2.56c-3.224-3.227-5.715-5.761-7.403-7.533zm82.068-29.772a1.5 1.5 0 1 0-2.451 1.731c2.438 3.452 3.726 7.538 3.726 11.815 0 3.417-.807 6.742-2.333 9.617a1.5 1.5 0 1 0 2.649 1.405c1.755-3.306 2.683-7.118 2.683-11.023 0-4.9-1.479-9.584-4.274-13.545zm-7.293 32.314c-3.715 3.783-9.094 9.161-15.985 15.985a1.5 1.5 0 1 0 2.111 2.13c6.901-6.833 12.289-12.222 16.015-16.015a1.5 1.5 0 1 0-2.141-2.1z"/>
    <path d="M25.542 33.421a1.5 1.5 0 0 0-2.121.037c-4.548 4.71-4.548 12.374 0 17.084a1.496 1.496 0 0 0 2.121.037 1.5 1.5 0 0 0 .037-2.121c-3.439-3.561-3.439-9.355 0-12.916a1.5 1.5 0 0 0-.037-2.121z"/>
</svg>
